The.Skin.I.Live.In.2011.Brrip ac3-TRiNiTY








La piel que habito (original title)
Plot: In honor of his late wife who died in a flaming car accident, scientist, Dr. Robert Ledgard, is trying to synthesize the perfect skin which can withstand burns, cuts or any other kind of damage. As he gets closer to perfecting this skin on his flawless patient, the scientific community starts growing skeptical and his past is revealed that shows how his patient is closely linked to tragic events he would like to forget.

Encoder: NiNe

Format : Matroska
File size : 1.22 GiB
Duration : 2h 0mn
Overall bit rate : 1 449 Kbps
Encoded date : UTC 2012-01-06 21:25:32
Writing application : mkvmerge v4.9.1 ('Ich will') built on Jul 11 2011 23:53:15
Writing library : libebml v1.2.1 + libmatroska v1.1.1

Video #1
ID : 1
Format : AVC
Format/Info : Advanced Video Codec
Format profile : High@L4.1
Format settings, CABAC : Yes
Format settings, ReFrames : 4 frames
Format settings, GOP : M=4, N=25
Codec ID : V_MPEG4/ISO/AVC
Duration : 2h 0mn
Bit rate : 1 000 Kbps
Width : 1 280 pixels
Height : 688 pixels
Display aspect ratio : 1.860
Frame rate : 24.000 fps
Color space : YUV
Chroma subsampling : 4:2:0
Bit depth : 8 bits
Scan type : Progressive
Bits/(Pixel*Frame) : 0.047
Stream size : 836 MiB (67%)
Writing library : x264 core 116 r2074 2641b9e

Encoding settings : ca.00
Language : English

Audio #2
ID : 2
Format : AC-3
Format/Info : Audio Coding 3
Mode extension : CM (complete main)
Codec ID : A_AC3
Duration : 2h 0mn
Bit rate mode : Constant
Bit rate : 448 Kbps
Channel(s) : 6 channels
Channel positions : Front: L C R, Side: L R, LFE
Sampling rate : 48.0 KHz
Bit depth : 16 bits
Compression mode : Lossy
Stream size : 385 MiB (31%)
Language : Spanish
subs :hardcoded





             WARNING PEOPLE : Not In English !!!!!!!!!!!!!!




